#tb 0: 1/25
0,          0,          0,        1,  3110400, 0xaea1c3d6
0,          1,          1,        1,  3110400, 0x665b4f52
0,          2,          2,        1,  3110400, 0xc7da58a2
0,          3,          3,        1,  3110400, 0x1dda6461
0,          4,          4,        1,  3110400, 0x1d8d6eaf
0,          5,          5,        1,  3110400, 0x7a29911a
0,          6,          6,        1,  3110400, 0x0dce92c9
0,          7,          7,        1,  3110400, 0x79c84570
0,          8,          8,        1,  3110400, 0x736ef1e7
0,          9,          9,        1,  3110400, 0x9dd86492
0,         10,         10,        1,  3110400, 0x0ea31a1b
0,         11,         11,        1,  3110400, 0x0d84fdc8
0,         12,         12,        1,  3110400, 0x06ed89a7
0,         13,         13,        1,  3110400, 0xfaea4fd6
0,         14,         14,        1,  3110400, 0xe787abe8
0,         15,         15,        1,  3110400, 0x050b653a
0,         16,         16,        1,  3110400, 0x35cc1ec1
0,         17,         17,        1,  3110400, 0x86a43e07
0,         18,         18,        1,  3110400, 0xa6ab021e
0,         19,         19,        1,  3110400, 0x491e0efa
0,         20,         20,        1,  3110400, 0x8f210c38
0,         21,         21,        1,  3110400, 0x637af0d0
0,         22,         22,        1,  3110400, 0x47a59197
0,         23,         23,        1,  3110400, 0x53e04637
0,         24,         24,        1,  3110400, 0x7b99325e
0,         25,         25,        1,  3110400, 0x972aa252
0,         26,         26,        1,  3110400, 0xe76ef917
0,         27,         27,        1,  3110400, 0x7a25babc
0,         28,         28,        1,  3110400, 0x3bee3c5c
0,         29,         29,        1,  3110400, 0xbae82bcb
0,         30,         30,        1,  3110400, 0x5b65c1e5
0,         31,         31,        1,  3110400, 0xa546266f
0,         32,         32,        1,  3110400, 0x5c5b9b8e
0,         33,         33,        1,  3110400, 0xec29c804
0,         34,         34,        1,  3110400, 0x384efc7d
0,         35,         35,        1,  3110400, 0x6c1aaa23
0,         36,         36,        1,  3110400, 0x55494f9f
0,         37,         37,        1,  3110400, 0xa9c56fec
0,         38,         38,        1,  3110400, 0x49c29ef2
0,         39,         39,        1,  3110400, 0xac24fdd4
0,         40,         40,        1,  3110400, 0x403d8213
0,         41,         41,        1,  3110400, 0xf2d8aefe
0,         42,         42,        1,  3110400, 0x2884f0e1
0,         43,         43,        1,  3110400, 0x69a0a781
0,         44,         44,        1,  3110400, 0x3ab6114c
0,         45,         45,        1,  3110400, 0x1d4425a2
0,         46,         46,        1,  3110400, 0x59f8970a
0,         47,         47,        1,  3110400, 0xfe0a05a9
0,         48,         48,        1,  3110400, 0x50b9be4f
0,         49,         49,        1,  3110400, 0x3e1b65bd
